<svg xmlns="http://www.w3.org/2000/svg" viewBox="0 0 512 512">
  <path fill="#3b82f6" d="M464 120c-5.3-25.1-15.6-47.8-30-66.2C411.7 25 381.7 8 344 8c-32.3 0-60.6 15.1-78 37.9C248.6 23.1 220.3 8 188 8c-37.7 0-67.7 17-90 45.8-14.4 18.4-24.7 41.1-30 66.2-7 33-8 69.1-3 104.9 10 71.5 45.3 128.5 73.1 173.3 11 17.8 22.8 36.8 33.2 57.6 12 24.1 20 52.4 20.7 80.2 0 10.1 8.2 18.2 18.3 18.2H216c10.1 0 18.2-8.2 18.2-18.3 0-25-.6-50.4-12.7-74.9-10.4-21-22.1-40.2-33-57.9-26.6-43.1-55.8-93.5-64-152-4.1-29.4-3.3-59 2.5-86.4 4.1-19.4 11-35.8 21.1-48.7 15.6-20.1 36.6-32.3 62-32.3 22.3 0 42.6 10.3 56.5 28.5l1.4 1.8 1.4-1.8c13.9-18.2 34.2-28.5 56.5-28.5 25.4 0 46.4 12.2 62 32.3 10.1 12.9 17 29.3 21.1 48.7 5.8 27.4 6.7 57 2.5 86.4-8.2 58.5-37.4 108.9-64 152-10.9 17.7-22.6 36.9-33 57.9-12.1 24.5-12.7 49.9-12.7 74.9 0 10.1 8.2 18.3 18.2 18.3h5.7c10.1 0 18.3-8.1 18.3-18.2.7-27.8 8.7-56.1 20.7-80.2 10.4-20.8 22.2-39.8 33.2-57.6 27.8-44.8 63.1-101.8 73.1-173.3 5-35.8 4-71.9-3-104.9z"/>
</svg>
